<svg width="333" height="448" viewBox="0 0 333 448" fill="none" xmlns="http://www.w3.org/2000/svg">
<rect x="0.45396" y="0.45396" width="332.092" height="447.092" rx="32.5457" fill="url(#paint0_linear_1_11818)" stroke="url(#paint1_linear_1_11818)" stroke-width="0.90792"/>
<mask id="mask0_1_11818" style="mask-type:alpha" maskUnits="userSpaceOnUse" x="133" y="223" width="200" height="225">
<rect x="133.454" y="223.454" width="199.092" height="224.092" rx="32.5457" fill="url(#paint2_linear_1_11818)" stroke="url(#paint3_linear_1_11818)" stroke-width="0.90792"/>
</mask>
<g mask="url(#mask0_1_11818)">
<g style="mix-blend-mode:luminosity">
<path d="M296.597 501.088C332.488 491.471 355.337 460.367 347.633 431.614C339.928 402.861 304.588 387.348 268.697 396.965C232.807 406.582 209.957 437.687 217.662 466.439C225.366 495.192 260.707 510.705 296.597 501.088Z" fill="url(#paint4_linear_1_11818)"/>
<path d="M294.042 491.555C323.293 483.717 342.176 459.339 336.219 437.106C330.261 414.872 301.719 403.202 272.468 411.039C243.217 418.877 224.334 443.255 230.292 465.489C236.249 487.722 264.791 499.393 294.042 491.555Z" fill="url(#paint5_linear_1_11818)"/>
<path d="M293.424 489.244C321.149 481.816 339.161 459.137 333.656 438.589C328.15 418.042 301.211 407.408 273.486 414.837C245.762 422.266 227.749 444.945 233.255 465.492C238.76 486.039 265.699 496.673 293.424 489.244Z" fill="url(#paint6_linear_1_11818)"/>
<path style="mix-blend-mode:color-dodge" d="M298.048 468.334C300.338 448.33 285.971 430.263 265.959 427.979C245.948 425.695 227.869 440.06 225.579 460.064C223.29 480.068 237.656 498.136 257.668 500.419C277.68 502.703 295.759 488.338 298.048 468.334Z" fill="url(#paint7_radial_1_11818)"/>
<path d="M199.258 408.811C199.771 410.723 198.633 412.693 196.72 413.206C194.807 413.718 192.836 412.581 192.324 410.669C191.812 408.757 192.95 406.787 194.863 406.275C196.776 405.762 198.746 406.899 199.258 408.811Z" fill="url(#paint8_radial_1_11818)"/>
<path d="M263.842 412.853C266.526 412.134 269.288 413.728 270.007 416.41C270.725 419.092 269.13 421.853 266.447 422.572C263.763 423.291 261.001 421.697 260.283 419.015C259.564 416.333 261.159 413.572 263.842 412.853Z" fill="url(#paint9_radial_1_11818)"/>
<path d="M166.942 336.397C167.216 337.419 166.613 338.463 165.59 338.737C164.567 339.012 163.523 338.409 163.249 337.387C162.975 336.364 163.578 335.32 164.601 335.046C165.624 334.772 166.668 335.375 166.942 336.397Z" fill="url(#paint10_radial_1_11818)"/>
<g style="mix-blend-mode:overlay">
<path d="M333.226 364.405C349.28 368.528 365.288 372.848 381.033 378.05C384.962 379.374 388.872 380.788 392.701 382.381C394.613 383.192 396.519 384.033 398.347 385.066C399.266 385.574 400.16 386.146 400.967 386.926C401.154 387.146 401.364 387.346 401.489 387.654C401.634 387.928 401.718 388.347 401.574 388.713C401.229 389.446 400.601 389.6 400.101 389.805C397.983 390.401 395.901 390.389 393.813 390.408C391.731 390.397 389.645 390.315 387.571 390.174C383.427 389.904 379.3 389.487 375.169 389C358.697 387.038 342.334 384.264 326.032 381.289C309.723 378.288 293.476 374.985 277.285 371.468C261.102 367.877 244.973 364.059 228.899 359.97C212.835 355.864 196.827 351.543 180.986 346.623C173.072 344.133 165.183 341.579 157.504 338.371C155.592 337.56 153.697 336.702 151.868 335.669C150.955 335.131 150.045 334.606 149.262 333.806C149.065 333.602 148.877 333.382 148.729 333.094C148.575 332.837 148.478 332.422 148.612 332.073C148.93 331.347 149.557 331.136 150.051 330.961C152.166 330.352 154.255 330.39 156.339 330.358C158.421 330.369 160.498 330.468 162.575 330.623C170.859 331.249 179.067 332.394 187.271 333.625C195.465 334.874 203.627 336.273 211.785 337.759C203.616 336.39 195.425 335.098 187.216 333.953C179.015 332.835 170.781 331.811 162.526 331.29C160.456 331.162 158.393 331.06 156.345 331.068C154.304 331.103 152.182 331.102 150.297 331.664C149.832 331.789 149.406 332.059 149.32 332.324C149.197 332.556 149.481 332.978 149.797 333.306C150.475 333.979 151.375 334.52 152.251 335.026C154.029 336.029 155.918 336.861 157.826 337.659C165.461 340.807 173.369 343.327 181.269 345.765C197.102 350.602 213.131 354.845 229.188 358.868C245.257 362.887 261.405 366.615 277.586 370.149C293.755 373.743 309.977 377.11 326.251 380.192C342.531 383.244 358.854 386.085 375.291 388.128C379.395 388.622 383.512 389.055 387.634 389.346C389.694 389.491 391.758 389.593 393.813 389.611C395.857 389.59 397.966 389.594 399.862 389.072C400.293 388.928 400.786 388.696 400.859 388.435C400.972 388.219 400.735 387.813 400.419 387.485C399.741 386.813 398.877 386.248 397.992 385.759C396.223 384.739 394.335 383.907 392.436 383.092C388.633 381.493 384.74 380.088 380.828 378.717C365.182 373.304 349.221 368.786 333.237 364.445L333.226 364.405Z" fill="white"/>
</g>
<g style="mix-blend-mode:overlay">
<path d="M226.794 392.923C214.952 404.521 203.249 416.266 192.214 428.644C189.474 431.755 186.795 434.935 184.275 438.228C183.025 439.887 181.795 441.568 180.728 443.377C180.186 444.276 179.698 445.218 179.389 446.297C179.337 446.581 179.255 446.86 179.301 447.189C179.312 447.499 179.449 447.903 179.757 448.148C180.422 448.61 181.043 448.43 181.578 448.357C183.711 447.814 185.508 446.764 187.326 445.736C189.123 444.685 190.889 443.572 192.614 442.412C196.068 440.106 199.434 437.682 202.768 435.194C216.052 425.259 228.835 414.676 241.466 403.948C254.089 393.194 266.509 382.21 278.772 371.069C290.991 359.868 303.05 348.497 314.926 336.919C326.785 325.331 338.488 313.585 349.746 301.404C355.355 295.29 360.91 289.134 365.957 282.516C367.207 280.858 368.419 279.167 369.487 277.358C370.008 276.435 370.534 275.526 370.812 274.441C370.881 274.167 370.933 273.882 370.918 273.559C370.923 273.259 370.799 272.851 370.508 272.616C369.87 272.146 369.222 272.277 368.706 272.373C366.57 272.902 364.78 273.98 362.959 274.994C361.162 276.045 359.412 277.168 357.691 278.341C350.83 283.026 344.294 288.121 337.805 293.29C331.333 298.468 324.964 303.761 318.642 309.126C325.032 303.856 331.48 298.642 338.016 293.546C344.56 288.477 351.178 283.473 358.067 278.895C359.796 277.749 361.532 276.629 363.309 275.612C365.094 274.621 366.931 273.56 368.845 273.104C369.31 272.979 369.814 273.001 370.021 273.187C370.243 273.327 370.208 273.835 370.099 274.277C369.848 275.198 369.339 276.117 368.833 276.992C367.795 278.75 366.575 280.415 365.322 282.06C360.284 288.604 354.696 294.741 349.073 300.802C337.779 312.907 326.032 324.593 314.125 336.109C302.219 347.624 290.098 358.926 277.852 370.078C265.646 381.275 253.281 392.301 240.728 403.107C228.155 413.89 215.439 424.513 202.226 434.5C198.918 436.98 195.57 439.414 192.146 441.726C190.434 442.882 188.698 444.002 186.927 445.046C185.146 446.05 183.322 447.107 181.419 447.603C180.974 447.694 180.431 447.74 180.237 447.55C180.032 447.42 180.034 446.95 180.143 446.508C180.395 445.587 180.86 444.665 181.382 443.799C182.403 442.031 183.623 440.367 184.86 438.712C187.354 435.425 190.023 432.262 192.726 429.119C203.568 416.608 215.132 404.715 226.805 392.963L226.794 392.923Z" fill="white"/>
</g>
<path d="M304.886 249.342C307.57 248.623 310.332 250.217 311.05 252.899C311.769 255.581 310.174 258.342 307.491 259.061C304.807 259.78 302.045 258.187 301.327 255.505C300.608 252.823 302.203 250.061 304.886 249.342Z" fill="url(#paint11_radial_1_11818)"/>
<path d="M311.343 308.563C310.782 305.938 310.112 303.172 309.351 300.33C305.099 284.464 299.473 272.181 296.777 272.904C294.08 273.626 295.349 287.076 299.6 302.943C300.362 305.784 301.165 308.515 301.991 311.069L311.33 308.566L311.343 308.563Z" fill="url(#paint12_linear_1_11818)"/>
<path d="M299.67 282.745C303.58 281.697 305.901 277.679 304.854 273.771C303.807 269.862 299.788 267.543 295.877 268.591C291.967 269.639 289.646 273.657 290.693 277.565C291.74 281.474 295.759 283.793 299.67 282.745Z" fill="url(#paint13_linear_1_11818)"/>
<path d="M195.108 339.708C194.547 337.083 193.877 334.317 193.115 331.476C188.864 315.609 183.238 303.327 180.541 304.049C177.845 304.772 179.113 318.221 183.365 334.088C184.126 336.93 184.929 339.66 185.756 342.214L195.094 339.712L195.108 339.708Z" fill="url(#paint14_linear_1_11818)"/>
<path d="M183.434 313.89C187.345 312.843 189.666 308.825 188.619 304.916C187.571 301.008 183.552 298.689 179.642 299.736C175.732 300.784 173.411 304.802 174.458 308.711C175.505 312.619 179.524 314.938 183.434 313.89Z" fill="url(#paint15_linear_1_11818)"/>
<path d="M315.901 306.388L309.604 308.075C307.124 308.74 305.653 311.288 306.317 313.766L312.632 337.334C313.296 339.813 315.844 341.283 318.324 340.619L324.621 338.932C327.101 338.267 328.572 335.719 327.908 333.241L321.593 309.673C320.929 307.194 318.381 305.724 315.901 306.388Z" fill="url(#paint16_linear_1_11818)"/>
<path d="M320.181 318.533L311.971 320.733C310.02 321.256 308.861 323.261 309.384 325.212L312.888 338.29C313.411 340.241 315.417 341.398 317.368 340.875L325.578 338.676C327.529 338.153 328.688 336.147 328.165 334.197L324.66 321.118C324.138 319.168 322.132 318.01 320.181 318.533Z" fill="url(#paint17_linear_1_11818)"/>
<path d="M187.232 340.865L180.935 342.552C178.456 343.217 176.984 345.765 177.648 348.243L183.963 371.811C184.627 374.29 187.176 375.76 189.655 375.096L195.952 373.409C198.432 372.744 199.904 370.196 199.239 367.718L192.924 344.15C192.26 341.671 189.712 340.201 187.232 340.865Z" fill="url(#paint18_linear_1_11818)"/>
<path d="M191.512 353.01L183.302 355.21C181.351 355.733 180.192 357.738 180.715 359.689L184.219 372.767C184.742 374.718 186.748 375.875 188.699 375.352L196.909 373.152C198.86 372.629 200.019 370.624 199.496 368.674L195.992 355.595C195.469 353.645 193.463 352.487 191.512 353.01Z" fill="url(#paint19_linear_1_11818)"/>
<path d="M266.939 390.989C302.829 381.373 325.679 350.268 317.974 321.515C310.27 292.762 274.93 277.249 239.039 286.866C203.149 296.483 180.299 327.588 188.004 356.341C195.708 385.093 231.048 400.606 266.939 390.989Z" fill="url(#paint20_linear_1_11818)"/>
<path d="M263.164 376.902C292.415 369.064 311.298 344.686 305.341 322.453C299.383 300.219 270.841 288.549 241.59 296.386C212.339 304.224 193.456 328.602 199.414 350.836C205.371 373.069 233.914 384.74 263.164 376.902Z" fill="url(#paint21_linear_1_11818)"/>
<path d="M262.151 373.118C289.875 365.689 307.888 343.01 302.382 322.463C296.877 301.916 269.938 291.281 242.213 298.71C214.488 306.139 196.476 328.818 201.981 349.365C207.487 369.912 234.426 380.547 262.151 373.118Z" fill="url(#paint22_linear_1_11818)"/>
<path d="M284.191 334.808L225.741 350.47C221.703 351.552 217.56 349.161 216.478 345.125C215.397 341.088 217.789 336.946 221.828 335.864L280.277 320.203C284.316 319.121 288.459 321.511 289.54 325.548C290.622 329.584 288.229 333.726 284.191 334.808Z" fill="#8EE9FE"/>
<path d="M266.631 347.383L248.113 352.345C247.236 352.58 246.327 352.055 246.092 351.179C245.857 350.302 246.382 349.393 247.259 349.158L265.777 344.196C266.654 343.962 267.563 344.486 267.798 345.363C268.033 346.239 267.521 347.145 266.631 347.383Z" fill="#8EE9FE"/>
<path style="mix-blend-mode:overlay" opacity="0.36" d="M242.213 298.71C237.564 299.956 233.189 301.64 229.146 303.663C229.439 306.032 229.876 308.406 230.513 310.782C237.849 338.161 265.991 354.4 293.383 347.06C295.561 346.476 297.657 345.744 299.685 344.916C303.251 337.713 304.376 329.955 302.369 322.466C296.862 301.913 269.924 291.285 242.2 298.714L242.213 298.71Z" fill="url(#paint23_linear_1_11818)"/>
</g>
</g>
<defs>
<linearGradient id="paint0_linear_1_11818" x1="166.5" y1="0" x2="166.5" y2="448" gradientUnits="userSpaceOnUse">
<stop stop-color="#7500BC"/>
<stop offset="1" stop-color="#250062"/>
</linearGradient>
<linearGradient id="paint1_linear_1_11818" x1="166.5" y1="0" x2="166.5" y2="448" gradientUnits="userSpaceOnUse">
<stop stop-color="white" stop-opacity="0.15"/>
<stop offset="1" stop-opacity="0"/>
</linearGradient>
<linearGradient id="paint2_linear_1_11818" x1="233" y1="223" x2="233" y2="448" gradientUnits="userSpaceOnUse">
<stop stop-color="#7500BC"/>
<stop offset="1" stop-color="#250062"/>
</linearGradient>
<linearGradient id="paint3_linear_1_11818" x1="233" y1="223" x2="233" y2="448" gradientUnits="userSpaceOnUse">
<stop stop-color="white" stop-opacity="0.15"/>
<stop offset="1" stop-opacity="0"/>
</linearGradient>
<linearGradient id="paint4_linear_1_11818" x1="280.866" y1="490.944" x2="290.731" y2="258.438" gradientUnits="userSpaceOnUse">
<stop stop-color="white"/>
<stop offset="1" stop-color="#5EA5FC"/>
</linearGradient>
<linearGradient id="paint5_linear_1_11818" x1="282.344" y1="447.841" x2="271.475" y2="407.278" gradientUnits="userSpaceOnUse">
<stop stop-color="white"/>
<stop offset="1" stop-color="#5EA5FC"/>
</linearGradient>
<linearGradient id="paint6_linear_1_11818" x1="262.241" y1="518.462" x2="311.073" y2="365.378" gradientUnits="userSpaceOnUse">
<stop stop-color="#1F378F"/>
<stop offset="1" stop-color="#131941"/>
</linearGradient>
<radialGradient id="paint7_radial_1_11818" cx="0" cy="0" r="1" gradientUnits="userSpaceOnUse" gradientTransform="translate(261.776 464.227) rotate(165) scale(36.472 36.4544)">
<stop stop-color="#90FAFA"/>
<stop offset="0.05" stop-color="#75CBCB"/>
<stop offset="0.1" stop-color="#5CA1A1"/>
<stop offset="0.15" stop-color="#467A7A"/>
<stop offset="0.21" stop-color="#335959"/>
<stop offset="0.27" stop-color="#233D3D"/>
<stop offset="0.34" stop-color="#162626"/>
<stop offset="0.42" stop-color="#0C1515"/>
<stop offset="0.52" stop-color="#050808"/>
<stop offset="0.66" stop-color="#010101"/>
<stop offset="1"/>
</radialGradient>
<radialGradient id="paint8_radial_1_11818" cx="0" cy="0" r="1" gradientUnits="userSpaceOnUse" gradientTransform="translate(196.19 408.253) rotate(-15) scale(4.33208 4.32999)">
<stop stop-color="#F3D042"/>
<stop offset="1" stop-color="#DB2385"/>
</radialGradient>
<radialGradient id="paint9_radial_1_11818" cx="0" cy="0" r="1" gradientUnits="userSpaceOnUse" gradientTransform="translate(263.3 417.097) rotate(-105) scale(5.03104 5.03346)">
<stop stop-color="white"/>
<stop offset="1" stop-color="#5EA5FC"/>
</radialGradient>
<radialGradient id="paint10_radial_1_11818" cx="0" cy="0" r="1" gradientUnits="userSpaceOnUse" gradientTransform="translate(165.334 336.188) rotate(-15) scale(1.91162 1.9107)">
<stop stop-color="white"/>
<stop offset="1" stop-color="#5EA5FC"/>
</radialGradient>
<radialGradient id="paint11_radial_1_11818" cx="0" cy="0" r="1" gradientUnits="userSpaceOnUse" gradientTransform="translate(304.343 253.586) rotate(-105) scale(0.6873 0.687632)">
<stop stop-color="white"/>
<stop offset="1" stop-color="#5EA5FC"/>
</radialGradient>
<linearGradient id="paint12_linear_1_11818" x1="300.425" y1="275.413" x2="306.444" y2="315.554" gradientUnits="userSpaceOnUse">
<stop stop-color="white"/>
<stop offset="1" stop-color="#5EA5FC"/>
</linearGradient>
<linearGradient id="paint13_linear_1_11818" x1="295.716" y1="288.287" x2="300.005" y2="261.874" gradientUnits="userSpaceOnUse">
<stop stop-color="#DB2385"/>
<stop offset="1" stop-color="#F3D042"/>
</linearGradient>
<linearGradient id="paint14_linear_1_11818" x1="184.189" y1="306.558" x2="190.208" y2="346.699" gradientUnits="userSpaceOnUse">
<stop stop-color="white"/>
<stop offset="1" stop-color="#5EA5FC"/>
</linearGradient>
<linearGradient id="paint15_linear_1_11818" x1="179.481" y1="319.432" x2="183.77" y2="293.019" gradientUnits="userSpaceOnUse">
<stop stop-color="#DB2385"/>
<stop offset="1" stop-color="#F3D042"/>
</linearGradient>
<linearGradient id="paint16_linear_1_11818" x1="315.1" y1="301.75" x2="319.589" y2="350.357" gradientUnits="userSpaceOnUse">
<stop stop-color="white"/>
<stop offset="1" stop-color="#5EA5FC"/>
</linearGradient>
<linearGradient id="paint17_linear_1_11818" x1="319.149" y1="292.739" x2="318.662" y2="342.681" gradientUnits="userSpaceOnUse">
<stop stop-color="white"/>
<stop offset="1" stop-color="#5EA5FC"/>
</linearGradient>
<linearGradient id="paint18_linear_1_11818" x1="186.444" y1="336.224" x2="190.933" y2="384.83" gradientUnits="userSpaceOnUse">
<stop stop-color="white"/>
<stop offset="1" stop-color="#5EA5FC"/>
</linearGradient>
<linearGradient id="paint19_linear_1_11818" x1="190.48" y1="327.216" x2="189.993" y2="377.158" gradientUnits="userSpaceOnUse">
<stop stop-color="white"/>
<stop offset="1" stop-color="#5EA5FC"/>
</linearGradient>
<linearGradient id="paint20_linear_1_11818" x1="254.78" y1="296.993" x2="244.915" y2="529.5" gradientUnits="userSpaceOnUse">
<stop stop-color="white"/>
<stop offset="1" stop-color="#5EA5FC"/>
</linearGradient>
<linearGradient id="paint21_linear_1_11818" x1="253.306" y1="340.11" x2="264.171" y2="380.659" gradientUnits="userSpaceOnUse">
<stop stop-color="white"/>
<stop offset="1" stop-color="#5EA5FC"/>
</linearGradient>
<linearGradient id="paint22_linear_1_11818" x1="273.405" y1="269.475" x2="224.578" y2="422.573" gradientUnits="userSpaceOnUse">
<stop stop-color="#1F378F"/>
<stop offset="1" stop-color="#131941"/>
</linearGradient>
<linearGradient id="paint23_linear_1_11818" x1="265.536" y1="304.614" x2="270.719" y2="387.66" gradientUnits="userSpaceOnUse">
<stop stop-color="white"/>
<stop offset="1" stop-color="#5EA5FC"/>
</linearGradient>
</defs>
</svg>
