<svg width="30" height="30" viewBox="0 0 30 30" fill="none" xmlns="http://www.w3.org/2000/svg">
<rect x="0.646952" y="0.646952" width="28.6014" height="28.6014" rx="14.3007" stroke="#4D4954" stroke-width="1.2939"/>
<path d="M8.53845 9.96472V9.25293C8.34967 9.25293 8.16863 9.32792 8.03514 9.46141C7.90165 9.5949 7.82666 9.77594 7.82666 9.96472H8.53845ZM21.3507 9.96472H22.0625C22.0625 9.77594 21.9875 9.5949 21.854 9.46141C21.7206 9.32792 21.5395 9.25293 21.3507 9.25293V9.96472ZM8.53845 10.6765H21.3507V9.25293H8.53845V10.6765ZM20.6389 9.96472V18.5062H22.0625V9.96472H20.6389ZM19.9271 19.218H9.96204V20.6416H19.9271V19.218ZM9.25025 18.5062V9.96472H7.82666V18.5062H9.25025ZM9.96204 19.218C9.77326 19.218 9.59221 19.143 9.45873 19.0096C9.32524 18.8761 9.25025 18.695 9.25025 18.5062H7.82666C7.82666 19.0726 8.05164 19.6157 8.4521 20.0162C8.85256 20.4166 9.3957 20.6416 9.96204 20.6416V19.218ZM20.6389 18.5062C20.6389 18.695 20.5639 18.8761 20.4305 19.0096C20.297 19.143 20.1159 19.218 19.9271 19.218V20.6416C20.4935 20.6416 21.0366 20.4166 21.4371 20.0162C21.8375 19.6157 22.0625 19.0726 22.0625 18.5062H20.6389Z" fill="#4D4954"/>
<path d="M9.13196 10.3804L14.9449 16.1933L20.7579 10.3804" fill="#4D4954"/>
<path d="M9.13196 10.3804L14.9449 16.1933L20.7579 10.3804H9.13196Z" stroke="#4D4954" stroke-width="0.830426" stroke-linecap="round" stroke-linejoin="round"/>
</svg>
