<svg width="252" height="244" viewBox="0 0 252 244" fill="none" xmlns="http://www.w3.org/2000/svg">
<rect width="252" height="244" rx="32.9997" fill="url(#paint0_linear_1_11732)"/>
<mask id="mask0_1_11732" style="mask-type:alpha" maskUnits="userSpaceOnUse" x="0" y="0" width="252" height="244">
<rect width="252" height="244" rx="32.9997" fill="url(#paint1_linear_1_11732)"/>
</mask>
<g mask="url(#mask0_1_11732)">
<g style="mix-blend-mode:luminosity">
<path d="M264.85 223.622C261.63 223.622 258.43 223.272 255.3 222.542C247.34 220.692 240.05 216.692 233 212.812C227.45 209.762 221.7 206.602 215.67 204.522C194.23 197.142 170.98 203.282 147.07 210.812C126.53 217.282 100.95 225.322 77.8503 218.132C65.7003 214.352 53.9203 206.132 43.7803 194.372C30.9703 179.512 23.0503 161.732 21.4603 144.292C19.7103 125.032 25.9203 105.742 38.0503 92.6915C65.2603 63.4315 109.29 72.4015 138.68 93.1115C142.76 95.9915 146.81 99.1915 150.73 102.282C164.01 112.782 177.75 123.642 195.22 123.722C204.84 123.772 214.67 121.112 224.15 118.542C236.03 115.322 248.32 112.002 260.53 113.892C280.15 116.942 297.96 129.092 307.01 145.602C316.51 162.942 316.04 185.282 305.83 201.192C296.94 215.052 280.75 223.592 264.86 223.592L264.85 223.622ZM194.69 200.192C201.95 200.192 209.06 201.192 216 203.582C222.12 205.682 227.9 208.862 233.49 211.942C240.48 215.782 247.7 219.752 255.53 221.572C273.7 225.792 294.51 217.012 304.98 200.682C315 185.062 315.46 163.132 306.13 146.112C297.23 129.872 279.69 117.912 260.37 114.912C248.37 113.042 236.19 116.342 224.41 119.532C214.95 122.092 205.17 124.742 195.47 124.742C195.39 124.742 195.3 124.742 195.22 124.742C177.41 124.662 163.53 113.692 150.12 103.082C146.22 99.9915 142.18 96.8015 138.12 93.9415C109.07 73.4715 65.6003 64.5615 38.8003 93.3815C26.8603 106.222 20.7503 125.232 22.4703 144.212C24.0303 161.442 31.8703 179.032 44.5503 193.722C54.5703 205.342 66.2003 213.462 78.1603 217.182C100.97 224.282 126.37 216.282 146.79 209.862C163.18 204.702 179.26 200.192 194.71 200.192H194.69Z" fill="#8581FF"/>
<path d="M82.8599 191.881L81.4199 216.961H131.54C131.54 216.961 124.8 202.341 111.47 209.001L102.86 196.311L101.73 190.201L82.8699 191.881H82.8599Z" fill="#B8ACFF"/>
<path d="M45 140.511C45 140.511 18.85 151.531 14.88 154.371C12.69 155.931 1.71996 160.601 9.25996 198.531C9.25996 198.531 23.34 197.261 31.72 194.711L35.89 220.591H86.49L84.77 191.701L101.72 190.191C101.72 190.191 95.5 151.971 89.01 148.481C82.53 144.991 61.48 141.241 61.48 141.241L45 140.511Z" fill="white"/>
<path d="M47.9799 133.681C47.9799 133.681 42.9099 133.571 42.4199 139.971C41.7599 148.621 47.3199 151.301 48.9399 152.631C52.3099 155.401 65.7099 154.471 67.0399 150.651C68.7799 145.641 68.3799 141.641 65.9899 138.581C63.5999 135.521 53.8999 132.411 47.9799 133.681Z" fill="white"/>
<path d="M46.3399 120.641C45.9699 118.521 45.9399 116.331 46.2699 114.201C46.2699 114.201 42.4899 112.721 41.0299 108.331L44.1699 108.401C44.1699 108.401 41.6499 107.221 41.4699 103.921C41.4699 103.921 44.2699 106.471 48.9399 104.261C53.6099 102.051 57.5899 99.8014 60.1099 102.661C60.1099 102.661 64.0799 99.9714 67.7899 102.041C67.7899 102.041 71.6899 100.021 74.4099 102.901C77.1299 105.781 75.5299 109.791 73.9299 111.431C73.9299 111.431 75.3899 116.501 72.9799 119.201C70.5699 121.901 55.9399 125.371 52.4199 125.321C48.8999 125.271 46.3499 120.641 46.3499 120.641H46.3399Z" fill="#7660FF"/>
<path d="M64.7699 138.161C64.7699 138.161 64.6999 140.901 64.5499 141.931C64.2499 144.001 62.2299 146.211 56.3299 145.321C47.6199 144.011 47.2799 137.301 47.9799 133.681C48.5499 130.741 49.4599 124.851 49.4599 124.851L64.7699 138.161Z" fill="#B8ACFF"/>
<path d="M64.5399 141.931C54.6699 140.161 52.6499 129.611 52.6499 129.611H54.9199L64.7599 138.161C64.7599 138.161 64.6499 140.141 64.5399 141.931Z" fill="#1D0D00"/>
<path d="M46.42 121.741C46.2 121.741 46 121.591 45.94 121.371C45.91 121.241 45.11 118.241 45.71 114.161C45.75 113.891 46 113.691 46.28 113.741C46.55 113.781 46.74 114.031 46.7 114.311C46.13 118.171 46.89 121.081 46.9 121.111C46.97 121.381 46.81 121.651 46.55 121.721C46.51 121.731 46.46 121.741 46.42 121.741Z" fill="#1D0D00"/>
<path d="M73.36 119.711C73.28 119.711 73.19 119.691 73.11 119.641C72.87 119.501 72.79 119.201 72.93 118.961C73.99 117.121 74.23 113.881 73.46 111.591C73.37 111.331 73.51 111.051 73.78 110.961C74.04 110.871 74.33 111.011 74.41 111.281C75.27 113.851 75.01 117.371 73.8 119.461C73.71 119.621 73.54 119.711 73.37 119.711H73.36Z" fill="#1D0D00"/>
<path d="M72.3199 113.081C68.0599 115.421 59.5099 117.741 56.3699 116.301C54.9399 127.551 51.7799 124.711 50.2699 122.891C49.4099 121.851 48.7699 120.731 47.3799 120.111C46.7899 119.851 46.1299 119.941 45.5899 120.301C45.0199 120.681 44.5899 121.381 44.5199 122.291C44.1399 127.531 50.5499 129.981 50.5499 129.981C53.8399 135.251 61.3599 139.911 67.1199 138.511C72.8799 137.111 74.5899 134.041 73.9199 122.311C73.7199 118.711 73.1499 115.441 72.3099 113.081H72.3199Z" fill="#B8ACFF"/>
<path d="M67.0398 130.281C66.7798 130.281 66.5698 130.081 66.5398 129.821C66.5198 129.541 66.7198 129.301 66.9898 129.281C67.4298 129.241 67.9598 129.021 68.0398 128.741C68.0798 128.591 68.0698 128.391 68.0498 128.201C67.9698 127.351 67.8098 126.501 67.6498 125.661C67.4898 124.831 67.3298 123.961 67.2498 123.091L67.2198 122.781C67.1098 121.731 66.9898 120.641 67.4098 119.561C68.2998 117.271 70.4898 116.931 72.2998 116.881C72.5598 116.881 72.8098 117.091 72.8098 117.371C72.8098 117.651 72.5998 117.881 72.3198 117.881C70.0598 117.941 68.8698 118.551 68.3298 119.921C67.9998 120.771 68.0998 121.691 68.1998 122.671L68.2298 122.991C68.3098 123.821 68.4698 124.661 68.6198 125.481C68.7798 126.331 68.9398 127.211 69.0298 128.101C69.0598 128.371 69.0798 128.691 68.9898 129.021C68.7698 129.791 67.8598 130.211 67.0698 130.281C67.0498 130.281 67.0398 130.281 67.0298 130.281H67.0398Z" fill="#1D0D00"/>
<path d="M58.3798 120.251C58.2098 120.251 58.0498 120.171 57.9498 120.011C57.7998 119.781 57.8798 119.471 58.1098 119.321C60.4898 117.841 63.8398 117.751 65.7398 119.101C65.9698 119.261 66.0198 119.571 65.8598 119.801C65.6998 120.021 65.3898 120.081 65.1598 119.921C63.5898 118.801 60.6598 118.921 58.6398 120.181C58.5598 120.231 58.4698 120.261 58.3798 120.261V120.251Z" fill="#1D0D00"/>
<path d="M59.1898 124.121C59.0398 124.121 58.8998 124.061 58.7998 123.931C58.6298 123.711 58.6598 123.401 58.8798 123.231C60.5498 121.891 62.9698 121.591 64.9198 122.481C65.1698 122.591 65.2798 122.891 65.1698 123.141C65.0598 123.391 64.7598 123.501 64.5098 123.391C62.8998 122.661 60.8998 122.911 59.5098 124.011C59.4198 124.081 59.3098 124.121 59.1998 124.121H59.1898Z" fill="#1D0D00"/>
<path d="M69.3998 123.041C69.2498 123.041 69.1098 122.971 69.0098 122.851C68.8398 122.631 68.8798 122.321 69.0898 122.151C70.1998 121.281 71.7398 120.961 73.0998 121.321C73.3698 121.391 73.5298 121.661 73.4598 121.931C73.3898 122.201 73.1198 122.361 72.8498 122.291C71.7798 122.011 70.5798 122.261 69.7098 122.941C69.6198 123.011 69.5098 123.051 69.3998 123.051V123.041Z" fill="#1D0D00"/>
<path d="M48.9099 127.021C48.9099 127.021 48.8699 127.021 48.8499 127.021C48.5799 126.991 48.3799 126.741 48.4099 126.461C48.5799 125.061 47.9399 123.101 46.7699 122.551C46.4799 122.411 46.1399 122.441 45.9599 122.611C45.7699 122.811 45.4499 122.811 45.2499 122.611C45.0499 122.421 45.0499 122.101 45.2499 121.901C45.7199 121.431 46.5199 121.321 47.1899 121.641C48.8199 122.411 49.6099 124.801 49.3999 126.581C49.3699 126.831 49.1499 127.021 48.8999 127.021H48.9099Z" fill="#1D0D00"/>
<path d="M46.4499 124.941C46.2199 124.941 46.0199 124.791 45.9599 124.561C45.8399 124.061 45.9599 123.511 46.2699 123.101C46.5799 122.691 47.0799 122.431 47.5899 122.411C47.8599 122.391 48.0999 122.611 48.1099 122.891C48.1199 123.171 47.9099 123.401 47.6299 123.411C47.4099 123.411 47.1999 123.531 47.0699 123.701C46.9399 123.871 46.8899 124.111 46.9399 124.321C46.9999 124.591 46.8399 124.861 46.5699 124.921C46.5299 124.921 46.4899 124.931 46.4499 124.931V124.941Z" fill="#1D0D00"/>
<path d="M66.4599 133.041C65.5599 133.041 64.6599 132.821 63.8599 132.381C63.6199 132.251 63.5299 131.941 63.6599 131.701C63.7899 131.461 64.0999 131.371 64.3399 131.501C65.6099 132.201 67.2599 132.201 68.5499 131.521C68.7899 131.391 69.0999 131.481 69.2299 131.731C69.3599 131.971 69.2699 132.281 69.0199 132.411C68.2299 132.831 67.3499 133.041 66.4699 133.041H66.4599Z" fill="#1D0D00"/>
<path d="M59.87 117.281C58.65 117.281 57.43 117.111 56.24 116.781C53.28 115.941 50.84 114.121 48.97 111.361C48.87 111.201 48.86 111.001 48.95 110.841C49.04 110.681 49.21 110.581 49.4 110.581C51.68 110.661 53.3 109.981 54.56 108.501C55.13 107.831 55.65 107.081 56.16 106.351C56.92 105.261 57.7 104.141 58.67 103.211C60.45 101.521 62.5 100.651 64.77 100.651H64.79C67.89 100.651 70.59 103.071 71.22 106.411C71.6 108.441 71.07 110.741 69.8 112.571C68.71 114.131 67.09 115.401 65.09 116.241C63.43 116.941 61.65 117.291 59.87 117.291V117.281ZM50.35 111.571C52 113.701 54.07 115.131 56.51 115.821C59.2 116.581 62.11 116.401 64.7 115.311C66.52 114.541 67.99 113.401 68.97 111.991C70.09 110.381 70.56 108.361 70.23 106.591C69.69 103.721 67.4 101.651 64.78 101.651H64.77C62.76 101.651 60.94 102.421 59.35 103.931C58.45 104.791 57.73 105.821 56.97 106.921C56.45 107.671 55.91 108.441 55.32 109.141C54.07 110.621 52.43 111.421 50.35 111.561V111.571Z" fill="#1D0D00"/>
<path d="M49.4299 115.111C47.9499 115.111 46.4699 114.741 45.1499 114.011C43.0899 112.871 41.4099 110.871 40.5599 108.501C40.4999 108.341 40.5299 108.151 40.6399 108.021C40.7499 107.881 40.9199 107.811 41.0899 107.831C41.7999 107.921 42.4599 107.971 43.1199 107.981C41.8699 107.011 40.9499 105.431 40.9699 103.911C40.9699 103.721 41.0799 103.541 41.2599 103.461C41.4299 103.381 41.6399 103.401 41.7899 103.521C43.2399 104.691 45.4299 104.921 47.7999 104.141C48.9799 103.751 50.1299 103.181 51.2499 102.621C52.1499 102.171 53.0699 101.711 54.0199 101.331C55.7799 100.641 58.3599 99.9913 60.4799 102.321C60.6699 102.521 60.6499 102.841 60.4499 103.031C60.2499 103.221 59.9299 103.201 59.7399 103.001C58.4099 101.541 56.7999 101.321 54.3899 102.271C53.4799 102.631 52.5699 103.081 51.6999 103.521C50.5499 104.101 49.3599 104.691 48.1199 105.101C45.8999 105.831 43.7799 105.761 42.1499 104.931C42.6199 106.401 44.0299 107.771 45.3999 107.891C45.6599 107.911 45.8599 108.131 45.8599 108.391C45.8599 108.651 45.6599 108.871 45.3999 108.891C44.1099 109.001 42.9999 109.011 41.8299 108.911C42.6599 110.721 44.0199 112.231 45.6599 113.131C47.4999 114.141 49.6999 114.381 51.6799 113.781C51.9499 113.701 52.2199 113.851 52.2999 114.111C52.3799 114.371 52.2299 114.651 51.9699 114.731C51.1499 114.981 50.3099 115.101 49.4599 115.101L49.4299 115.111Z" fill="#1D0D00"/>
<path d="M56.77 116.001C55.34 116.001 54.01 115.771 52.93 115.291C52.68 115.181 52.56 114.881 52.67 114.631C52.78 114.381 53.07 114.261 53.33 114.371C55.55 115.341 58.95 115.181 62 113.961C64.78 112.841 66.78 111.081 67.64 109.001C69.82 103.741 67.58 102.511 67.56 102.501C67.4 102.411 67.29 102.241 67.29 102.061C67.29 101.871 67.39 101.701 67.55 101.611C69.48 100.571 72.53 100.201 74.77 102.571C76.82 104.741 76.59 107.761 75.76 109.681C75.24 110.891 74.29 111.971 72.84 112.981C70.99 114.271 68.05 115.351 66.1 115.731C65.83 115.791 65.57 115.611 65.51 115.341C65.46 115.071 65.63 114.811 65.9 114.751C67.7 114.391 70.55 113.361 72.27 112.161C73.58 111.251 74.39 110.341 74.84 109.291C75.54 107.651 75.76 105.081 74.04 103.261C72.17 101.281 69.89 101.741 68.71 102.191C69.47 103.071 70.34 105.121 68.57 109.391C67.6 111.731 65.4 113.681 62.38 114.901C60.55 115.641 58.58 116.011 56.77 116.011V116.001Z" fill="#1D0D00"/>
<path d="M45.34 108.901C45.07 108.901 44.85 108.681 44.84 108.411C44.84 108.131 45.05 107.901 45.33 107.901C48.56 107.821 50.95 106.241 53.25 104.721C55.49 103.241 57.61 101.841 60.17 102.171C60.44 102.201 60.64 102.451 60.6 102.731C60.57 103.001 60.32 103.201 60.04 103.161C57.84 102.891 55.96 104.121 53.79 105.561C51.48 107.081 48.86 108.811 45.34 108.901Z" fill="#1D0D00"/>
<path d="M48.9399 118.881C47.9299 118.881 46.8599 118.691 45.7799 118.201C45.5299 118.091 45.4199 117.791 45.5299 117.541C45.6399 117.291 45.9399 117.181 46.1899 117.291C50.5399 119.271 54.8599 115.581 54.8999 115.551C55.1099 115.371 55.4199 115.391 55.6099 115.601C55.7899 115.811 55.7699 116.121 55.5599 116.311C55.4099 116.441 52.5399 118.891 48.9399 118.891V118.881Z" fill="#1D0D00"/>
<path d="M83.89 186.071C83.84 186.071 83.78 186.071 83.73 186.041C83.47 185.951 83.33 185.671 83.42 185.401C86.91 175.241 88.65 164.641 88.59 153.901C88.59 153.621 88.81 153.401 89.09 153.401C89.37 153.351 89.59 153.621 89.59 153.901C89.65 164.761 87.9 175.461 84.37 185.731C84.3 185.941 84.1 186.071 83.9 186.071H83.89Z" fill="#CCC4FF"/>
<path d="M31.7299 193.241C31.4799 193.241 31.2599 193.051 31.2299 192.791C27.2699 156.441 20.1799 155.371 17.5099 154.971C17.2399 154.931 17.0499 154.671 17.0899 154.401C17.1299 154.131 17.3899 153.941 17.6599 153.981C22.5599 154.721 28.6399 159.781 32.2199 192.681C32.2499 192.951 32.0499 193.201 31.7799 193.231C31.7599 193.231 31.7399 193.231 31.7299 193.231V193.241Z" fill="#CCC4FF"/>
<path d="M112.27 216.301H61.49V220.601H112.27V216.301Z" fill="#1D0D00"/>
<path d="M158.16 220.591H101.78L116.88 183.371C117.95 180.721 120.52 178.991 123.38 178.991H169.83C172.32 178.991 174.01 181.511 173.08 183.811L158.16 220.581V220.591Z" fill="#1D0D00"/>
<path d="M31.73 194.711L32.99 203.401L73.11 211.861C73.11 211.861 82.04 209.941 84.79 210.871C86.36 211.401 95.37 217.821 95.37 220.591H21.75C16.88 220.591 11.03 209.221 9.26001 198.521C9.26001 198.521 18.53 197.691 31.72 194.701L31.73 194.711Z" fill="#B8ACFF"/>
<path d="M241.18 227.311H-14.5C-14.78 227.311 -15 227.091 -15 226.811V220.591C-15 220.311 -14.78 220.091 -14.5 220.091H241.18C241.46 220.091 241.68 220.311 241.68 220.591V226.811C241.68 227.091 241.46 227.311 241.18 227.311ZM-14 226.311H240.68V221.091H-14V226.311Z" fill="#1D0D00"/>
<path d="M-7.02001 400.971H-9.51001C-9.65001 400.971 -9.78001 400.911 -9.87001 400.811C-9.96001 400.711 -10.01 400.581 -10.01 400.441L-0.0400095 226.781C-0.020009 226.521 0.18999 226.311 0.459991 226.311H10.93C11.07 226.311 11.21 226.371 11.3 226.481C11.4 226.591 11.44 226.731 11.43 226.871L-6.52001 400.531C-6.55001 400.781 -6.76001 400.981 -7.02001 400.981V400.971ZM-8.99001 399.971H-7.48001L10.36 227.311H0.919991L-8.99001 399.971Z" fill="#1D0D00"/>
<path d="M236.2 400.971H233.71C233.45 400.971 233.24 400.781 233.21 400.521L215.26 226.861C215.25 226.721 215.29 226.581 215.39 226.471C215.48 226.361 215.62 226.301 215.76 226.301H226.23C226.5 226.301 226.71 226.511 226.73 226.771L236.7 400.431C236.7 400.571 236.66 400.701 236.56 400.801C236.47 400.901 236.33 400.961 236.2 400.961V400.971ZM234.16 399.971H235.67L225.76 227.311H216.32L234.16 399.971Z" fill="#1D0D00"/>
<path d="M103.72 226.811L133.68 238.151C141.4 241.071 145.52 249.491 143.09 257.381L126.41 311.641L88.1698 301.781L107.15 260.271L78.9698 226.821H103.71L103.72 226.811Z" fill="#1D0D00"/>
<path d="M27.53 226.811C27.53 226.811 23.34 249.271 45.33 251.591L113.8 284.251L136.4 333.301L167.53 310.771L142.7 260.951C140.69 256.921 137.37 253.701 133.28 251.811L79 226.811H27.55H27.53Z" fill="#1D0D00"/>
<path d="M139.69 257.041C139.55 257.041 139.42 256.981 139.32 256.871C137.56 254.911 135.45 253.361 133.06 252.261L84.8099 230.041C84.5599 229.921 84.4499 229.631 84.5599 229.381C84.6799 229.131 84.9699 229.021 85.2199 229.131L133.47 251.351C135.99 252.511 138.2 254.141 140.06 256.201C140.24 256.411 140.23 256.721 140.02 256.911C139.92 257.001 139.8 257.041 139.69 257.041Z" fill="#7660FF"/>
<path d="M58.61 154.411C52.74 154.411 46.97 151.561 43.42 146.871C43.25 146.651 43.3 146.341 43.52 146.171C43.74 146.001 44.05 146.051 44.22 146.271C47.7 150.871 53.42 153.581 59.2 153.401C61.15 153.331 63.91 152.881 65.96 151.111C67.87 149.461 68.67 146.871 67.91 144.821C67.81 144.561 67.95 144.271 68.2 144.181C68.46 144.081 68.75 144.221 68.84 144.471C69.75 146.901 68.83 149.951 66.61 151.871C64.34 153.831 61.34 154.331 59.23 154.401C59.02 154.401 58.82 154.411 58.61 154.411Z" fill="#CCC4FF"/>
<path d="M202.77 199.802H188.77C188.77 199.802 189.04 220.602 202.77 220.602C216.5 220.602 216.77 199.802 216.77 199.802H202.77Z" fill="#1D0D00"/>
<path d="M206.91 179.161C207.93 169.811 206.91 162.221 209.4 155.231C213.06 144.901 221.12 136.851 228.94 129.171C223.07 140.741 225.11 155.181 218.86 166.551C216.1 171.571 211.42 173.701 206.91 179.151V179.161Z" fill="white"/>
<path d="M201.46 172.561C202.88 160.991 204.51 154.991 203.01 147.091C200.79 135.401 193.11 124.771 186.7 115.511C190.83 128.801 187.25 144.351 191.77 157.471C193.76 163.261 197.88 166.111 201.46 172.561Z" fill="#52B7CB"/>
<path d="M195.21 182.751C194.2 174.781 194.95 168.291 192.74 162.361C189.46 153.601 182.46 146.841 175.67 140.401C180.85 150.191 179.32 162.551 184.82 172.171C187.25 176.421 191.28 178.161 195.21 182.761V182.751Z" fill="white"/>
<path d="M201.32 214.192C201.06 214.192 200.84 213.992 200.82 213.732C199.08 193.562 192.58 172.322 181.52 150.592C181.39 150.342 181.49 150.042 181.74 149.922C181.99 149.792 182.29 149.892 182.41 150.142C193.53 171.982 200.06 193.352 201.82 213.642C201.84 213.912 201.64 214.162 201.36 214.182C201.35 214.182 201.33 214.182 201.32 214.182V214.192Z" fill="#1D0D00"/>
<path d="M203.61 214.192C203.33 214.192 203.11 213.972 203.11 213.692C203.11 175.682 199.14 159.592 195.29 144.032C194.58 141.142 193.84 138.152 193.15 135.112C193.09 134.842 193.26 134.572 193.53 134.512C193.8 134.452 194.07 134.622 194.13 134.892C194.82 137.932 195.55 140.912 196.26 143.792C200.12 159.412 204.11 175.562 204.11 213.692C204.11 213.972 203.89 214.192 203.61 214.192Z" fill="#1D0D00"/>
<path d="M203.61 214.192C203.61 214.192 203.6 214.192 203.59 214.192C203.31 214.182 203.1 213.952 203.11 213.672C204.67 174.032 210.68 161.962 218.3 146.692C218.98 145.322 219.68 143.932 220.38 142.482C220.5 142.232 220.8 142.132 221.05 142.252C221.3 142.372 221.4 142.672 221.28 142.922C220.57 144.372 219.87 145.762 219.19 147.132C211.63 162.292 205.66 174.272 204.11 213.702C204.1 213.972 203.88 214.182 203.61 214.182V214.192Z" fill="#1D0D00"/>
</g>
</g>
<defs>
<linearGradient id="paint0_linear_1_11732" x1="126" y1="0" x2="126" y2="244" gradientUnits="userSpaceOnUse">
<stop stop-color="#ECECEC"/>
<stop offset="1" stop-color="#EDEDED"/>
</linearGradient>
<linearGradient id="paint1_linear_1_11732" x1="126" y1="0" x2="126" y2="240.5" gradientUnits="userSpaceOnUse">
<stop stop-color="#ECECEC"/>
<stop offset="1"/>
</linearGradient>
</defs>
</svg>
