<svg width="30" height="30" viewBox="0 0 30 30" fill="none" xmlns="http://www.w3.org/2000/svg">
<rect x="0.646952" y="0.646952" width="28.6014" height="28.6014" rx="14.3007" stroke="#4D4954" stroke-width="1.2939"/>
<path d="M21.3479 18.7121L18.3161 15.9555C18.1727 15.8252 17.9844 15.7558 17.7908 15.7617C17.5973 15.7677 17.4136 15.8487 17.2786 15.9876L15.4938 17.8231C15.0642 17.741 14.2005 17.4718 13.3115 16.585C12.4224 15.6952 12.1532 14.8293 12.0734 14.4027L13.9074 12.6171C14.0464 12.4822 14.1275 12.2985 14.1335 12.1049C14.1395 11.9113 14.0699 11.7229 13.9395 11.5797L11.1836 8.5486C11.0531 8.40492 10.8717 8.31777 10.678 8.30565C10.4843 8.29354 10.2935 8.35741 10.1461 8.48372L8.52765 9.87171C8.3987 10.0011 8.32173 10.1734 8.31135 10.3558C8.30017 10.5422 8.08685 14.959 11.5118 18.3854C14.4996 21.3725 18.2422 21.591 19.273 21.591C19.4236 21.591 19.5161 21.5865 19.5407 21.585C19.7231 21.5748 19.8952 21.4975 20.024 21.368L21.4113 19.7488C21.5381 19.6019 21.6024 19.4112 21.5906 19.2175C21.5788 19.0238 21.4917 18.8424 21.3479 18.7121Z" fill="#4D4954"/>
</svg>
