<svg width="73" height="73" viewBox="0 0 73 73" fill="none" xmlns="http://www.w3.org/2000/svg">
<path d="M0.153381 65.1292L7.74869 72.7405C8.09397 73.0865 10.1655 73.0865 10.5107 72.7405L54.702 29.4939C55.3924 28.8019 56.083 28.4559 57.1187 28.4559C57.4639 28.4559 58.1545 28.4559 58.4996 28.8019C59.8806 29.1479 60.571 30.5318 60.571 31.9157V53.7121V54.0581H71.619C72.3094 54.0581 72.6549 54.0581 73 54.0581V1.12446C73 1.12446 73 1.12446 72.3096 0.432433C71.6192 -0.259596 71.9645 0.0865889 71.2737 0.0865889H19.4871C19.4871 0.432433 19.4871 0.778448 19.4871 1.81649V12.5414C19.4871 13.2333 19.4871 13.9253 19.4871 13.9253H41.5828C42.9637 13.9253 44.3447 14.6172 44.6898 16.0011C45.3802 17.3849 45.0351 18.7688 43.9994 19.8069L0.843964 62.7074C0.49868 63.0534 0.153381 63.3995 0.153381 64.0913C-0.191734 64.7832 0.153381 64.7832 0.153381 65.1292Z" fill="#423EF3"/>
</svg>
