<svg width="250" height="20" viewBox="0 0 250 20" fill="none" xmlns="http://www.w3.org/2000/svg">
<g clip-path="url(#clip0_2001_21723)">
<path d="M38.3024 0.0775523C37.0875 0.100817 36.1248 1.10896 36.1401 2.342V17.5184C36.1554 18.7204 37.1181 19.6976 38.3024 19.7131H38.3406C39.5401 19.7131 40.5181 18.7359 40.5411 17.5184V2.2722C40.5181 1.03917 39.5172 0.0542874 38.3024 0.0775523Z" fill="#45108A"/>
<path d="M67.3213 15.634L50.4967 9.94959L67.306 4.4746C68.4597 4.09461 69.1015 2.83831 68.7271 1.66731C68.3528 0.496317 67.115 -0.155098 65.9613 0.224894L42.7568 7.79372C41.6031 8.17371 40.9689 9.43001 41.3356 10.601C41.5496 11.2757 42.0691 11.8108 42.7339 12.0357L65.9383 19.8759H65.9689L66.0453 19.9069C67.2143 20.2482 68.4292 19.5657 68.773 18.387C69.1015 17.2237 68.4674 16.014 67.3366 15.6417" fill="#45108A"/>
<path d="M74.5648 0.0775523C73.35 0.100817 72.3872 1.10896 72.4025 2.342V17.5184C72.4178 18.7204 73.3805 19.6976 74.5648 19.7131H74.603C75.8026 19.7131 76.7806 18.7359 76.8035 17.5107V2.2722C76.7806 1.03917 75.7873 0.0542874 74.5724 0.0775523" fill="#45108A"/>
<path d="M104.997 1.62858C104.607 0.465342 103.369 -0.162808 102.216 0.224939L79.0036 7.79376C77.8499 8.17376 77.2157 9.43006 77.5825 10.6011C77.7964 11.2757 78.316 11.8108 78.9807 12.0357L102.193 19.876C103.354 20.2404 104.584 19.5735 104.943 18.4025C105.287 17.2626 104.691 16.045 103.583 15.6418L86.7588 9.95739L103.622 4.45914C104.775 4.06364 105.387 2.79958 105.005 1.62858" fill="#45108A"/>
<path d="M175.878 3.2571C175.237 2.35752 174.442 1.58979 173.517 0.992655C172.562 0.380014 171.462 0.0310417 170.324 -0.00773301H152.582C151.406 -0.0232429 150.244 0.2792 149.228 0.876331C148.25 1.45795 147.402 2.22569 146.722 3.14077C146.027 4.06361 145.499 5.10277 145.148 6.20398C144.796 7.28191 144.613 8.41414 144.605 9.55411V17.6037C144.605 18.8445 145.599 19.8527 146.821 19.8527C148.044 19.8527 149.037 18.8445 149.037 17.6037V9.55411C149.037 8.99576 149.106 8.4374 149.22 7.89455C149.335 7.31293 149.572 6.75458 149.908 6.26602C150.267 5.75419 150.741 5.31991 151.283 5.00972C151.994 4.63748 152.789 4.45911 153.591 4.49013H168.887C169.674 4.45911 170.461 4.63748 171.164 5.00196C171.714 5.31216 172.196 5.73868 172.562 6.25826C172.899 6.74682 173.135 7.30518 173.258 7.89455C173.372 8.4374 173.441 8.99576 173.441 9.55411V17.6735C173.464 18.8988 174.45 19.8837 175.657 19.8837H175.695C176.918 19.8604 177.888 18.8445 177.873 17.6037V9.55411C177.873 8.4374 177.697 7.3362 177.353 6.27377C177.024 5.19583 176.52 4.17218 175.871 3.2571" fill="#45108A"/>
<path d="M212.126 3.2571C211.484 2.35752 210.689 1.58979 209.765 0.992655C208.81 0.380014 207.709 0.0310417 206.571 -0.00773301H188.83C187.653 -0.0232429 186.492 0.2792 185.475 0.876331C184.497 1.45795 183.649 2.22569 182.969 3.14077C182.274 4.06361 181.747 5.10277 181.395 6.20398C181.044 7.28191 180.86 8.41413 180.853 9.55411V17.6037C180.853 18.8445 181.846 19.8527 183.069 19.8527C184.291 19.8527 185.284 18.8445 185.284 17.6037V9.55411C185.284 8.99576 185.353 8.4374 185.468 7.89455C185.582 7.31293 185.819 6.75458 186.155 6.26602C186.514 5.75419 186.988 5.31991 187.531 5.00972C188.241 4.63748 189.036 4.45911 189.838 4.49013H205.142C205.929 4.45911 206.716 4.63748 207.419 5.00196C207.969 5.31216 208.451 5.73868 208.817 6.25826C209.154 6.74682 209.39 7.30518 209.513 7.8868C209.627 8.42965 209.696 8.988 209.696 9.54636V17.6658C209.719 18.8911 210.705 19.8759 211.912 19.8759H211.95C213.172 19.8527 214.143 18.8368 214.128 17.596V9.54636C214.128 8.42965 213.952 7.32844 213.608 6.26602C213.279 5.18808 212.775 4.16443 212.118 3.24934" fill="#45108A"/>
<path d="M24.1672 0H18.5284C17.3212 0 16.3509 0.992633 16.3509 2.21016C16.3509 3.42769 17.3288 4.42032 18.5284 4.42032H24.1672C27.8729 4.42032 28.1403 5.60682 28.1632 6.44436H6.5709C2.94163 6.44436 0 9.43001 0 13.1136C0 16.7972 2.94163 19.7829 6.5709 19.7829H25.2598C29.2711 19.7829 32.526 16.4793 32.526 12.4079V6.44436C32.4725 3.94727 31.2576 0 24.1672 0ZM28.1632 12.4079C28.1632 14.0364 26.8643 15.3548 25.2521 15.3625H6.5709C5.34841 15.3625 4.36277 14.3544 4.36277 13.1214C4.36277 11.8806 5.34841 10.8802 6.5709 10.8802H28.1708V12.4157L28.1632 12.4079Z" fill="#45108A"/>
<path d="M250 6.44436C249.938 3.94727 248.731 0 241.641 0H236.002C234.795 0 233.824 0.992633 233.824 2.21016C233.824 3.42769 234.802 4.42032 236.002 4.42032H241.641C245.346 4.42032 245.614 5.60682 245.637 6.44436H224.045C220.415 6.44436 217.474 9.43001 217.474 13.1136C217.474 16.7972 220.415 19.7829 224.045 19.7829H242.733C246.745 19.7829 250 16.4793 250 12.4079V6.44436ZM245.644 12.4079C245.644 14.0364 244.346 15.3548 242.733 15.3625H224.045C222.822 15.3625 221.836 14.3544 221.836 13.1214C221.836 11.8806 222.822 10.8802 224.045 10.8802H245.644V12.4157V12.4079Z" fill="#45108A"/>
<path d="M134.696 0H116.007C111.996 0 108.741 3.30361 108.741 7.37495V13.3385C108.795 15.8356 110.01 19.7829 117.1 19.7829H122.739C123.946 19.7829 124.916 18.7902 124.916 17.5727C124.916 16.3474 123.938 15.3625 122.739 15.3625H117.1C113.394 15.3625 113.127 14.176 113.104 13.3385H141.275V6.66925C141.26 2.98565 138.318 0 134.696 0ZM136.904 8.91043H113.096V7.37495C113.096 5.74641 114.395 4.42807 116.007 4.42032H134.696C135.919 4.42032 136.904 5.42846 136.904 6.6615V8.90268V8.91043Z" fill="#45108A"/>
<path d="M13.042 4.29631H10.1157C8.97725 4.29631 8.05273 3.35796 8.05273 2.20248C8.05273 1.04699 8.97725 0.108643 10.1157 0.108643H13.042C14.1805 0.108643 15.105 1.04699 15.105 2.20248C15.105 3.35796 14.1805 4.29631 13.042 4.29631Z" fill="#45108A"/>
<path d="M131.296 19.9999H128.37C127.231 19.9999 126.307 19.0616 126.307 17.9061C126.307 16.7506 127.231 15.8123 128.37 15.8123H131.296C132.434 15.8123 133.359 16.7506 133.359 17.9061C133.359 19.0616 132.434 19.9999 131.296 19.9999Z" fill="#45108A"/>
<path d="M230.516 4.29631H227.59C226.452 4.29631 225.527 3.35796 225.527 2.20248C225.527 1.04699 226.452 0.108643 227.59 0.108643H230.516C231.655 0.108643 232.579 1.04699 232.579 2.20248C232.579 3.35796 231.655 4.29631 230.516 4.29631Z" fill="#45108A"/>
</g>
<defs>
<clipPath id="clip0_2001_21723">
<rect width="250" height="20" fill="white"/>
</clipPath>
</defs>
</svg>
