<svg width="35" height="35" viewBox="0 0 35 35" fill="none" xmlns="http://www.w3.org/2000/svg">
<g clip-path="url(#clip0_212_88)">
<path d="M31.7783 14.278C30.3602 14.278 29.1539 15.1994 28.7246 16.4746H20.5459V18.5254H28.7245C29.9284 21.9358 34.9284 21.1598 35.0002 17.4999C35.0003 15.7234 33.5549 14.278 31.7783 14.278Z" fill="#816AA7"/>
<path d="M27.385 23.0645C26.87 23.0645 26.3832 23.1865 25.951 23.4024L23.7168 21.1682C23.5246 20.9759 23.2637 20.8678 22.9918 20.8678H20.5459V22.9186H22.5671L24.5009 24.8524C23.4229 26.9379 25.0268 29.5398 27.3851 29.5084C31.6533 29.3466 31.6525 23.2259 27.385 23.0645Z" fill="#DDDDDD"/>
<path d="M5.6227 18.5254H0C0.11252 20.4859 0.546396 22.3855 1.27757 24.1628H6.28004C5.90386 22.3694 5.68087 20.4719 5.6227 18.5254Z" fill="#DDDDDD"/>
<path d="M6.28004 10.8372H1.27757C0.546396 12.6145 0.11252 14.5141 0 16.4746H5.6227C5.68087 14.5281 5.90386 12.6306 6.28004 10.8372Z" fill="#DDDDDD"/>
<path d="M10.5743 1.40656C5.63832 3.52214 3.17294 7.24506 2.28516 8.78643H6.78997C7.48512 6.3879 8.66445 3.60308 10.5743 1.40656Z" fill="#816AA7"/>
<path d="M2.28516 26.2136C3.17294 27.7549 5.63832 31.4778 10.5743 33.5935C8.66411 31.3966 7.48512 28.6122 6.78997 26.2136H2.28516Z" fill="#816AA7"/>
<path d="M17.4693 0C13.5316 0 10.4979 3.84863 8.93164 8.78644H18.4947V1.02539C18.4947 0.459101 18.0356 0 17.4693 0Z" fill="#816AA7"/>
<path d="M17.4693 35C18.0356 35 18.4947 34.5409 18.4947 33.9746V26.2136H8.93164C10.5001 31.1583 13.5369 35 17.4693 35Z" fill="#816AA7"/>
<path d="M7.6748 16.4746H18.4952V10.8372H8.37788C7.97579 12.6137 7.73674 14.5143 7.6748 16.4746Z" fill="#DDDDDD"/>
<path d="M23.7168 13.8318L25.951 11.5977C28.0362 12.6757 30.6385 11.0718 30.607 8.7135C30.607 6.93691 29.1616 5.49152 27.385 5.49152C25.0269 5.46021 23.4225 8.06224 24.5009 10.1475L22.5671 12.0814H20.5459V14.1321H22.9918C23.2638 14.1321 23.5246 14.0241 23.7168 13.8318Z" fill="#DDDDDD"/>
<path d="M8.37788 24.1628H18.4952V18.5254H7.6748C7.73674 20.4857 7.97579 22.3863 8.37788 24.1628Z" fill="#DDDDDD"/>
</g>
<defs>
<clipPath id="clip0_212_88">
<rect width="35" height="35" fill="white"/>
</clipPath>
</defs>
</svg>
