<svg width="50" height="50" viewBox="0 0 50 50" fill="none" xmlns="http://www.w3.org/2000/svg">
<path d="M30.0499 26.979C29.9218 31.8145 35.7762 34.8495 39.6263 32.0873C44.6219 28.7972 42.262 20.8125 36.2049 20.824C34.5726 20.8246 33.0074 21.4732 31.8532 22.6274C30.6991 23.7816 30.0504 25.3468 30.0499 26.979Z" fill="white"/>
<path d="M46.3513 37.6411C45.5147 36.0878 44.3337 34.7465 42.8988 33.72C42.3956 33.3555 41.8625 33.0342 41.3053 32.7592C41.0497 32.9865 40.7783 33.1953 40.493 33.3841C39.229 34.2447 37.7339 34.7022 36.2047 34.6963C34.6712 34.6989 33.1721 34.2418 31.9009 33.3841C31.6195 33.1933 31.3508 32.9846 31.0963 32.7592C30.5427 33.036 30.0124 33.3573 29.5107 33.72C28.0755 34.7484 26.8923 36.0891 26.0504 37.6411C25.71 38.2857 25.5411 39.007 25.56 39.7358C25.579 40.4645 25.7851 41.1761 26.1585 41.8021C26.5319 42.4282 27.0602 42.9476 27.6924 43.3105C28.3246 43.6734 29.0396 43.8675 29.7685 43.8742L42.641 43.8743C43.37 43.8681 44.0851 43.6741 44.7173 43.3111C45.3495 42.9481 45.8775 42.4283 46.2504 41.8019C46.6232 41.1754 46.8284 40.4635 46.8461 39.7347C46.8638 39.0059 46.6933 38.2849 46.3513 37.6411Z" fill="white"/>
<path d="M28.6044 32.4467C29.0564 32.1252 29.5287 31.833 30.0182 31.5719C29.403 30.7451 28.9591 29.8038 28.7123 28.8033C28.4655 27.8027 28.4209 26.763 28.581 25.7449H22.8008V34.0715C23.991 34.1107 25.1752 34.2571 26.3391 34.5089C27.0116 33.7359 27.7718 33.0438 28.6044 32.4467Z" fill="#816AA7"/>
<path d="M32.7058 20.1053C33.9105 19.4973 35.2528 19.2135 36.6006 19.282C37.9483 19.3505 39.255 19.7689 40.3918 20.496C39.5302 16.949 37.658 13.7282 35.0022 11.2242C33.8458 12.1823 32.5856 13.0077 31.2451 13.6847C31.9596 15.7667 32.4493 17.9192 32.7058 20.1053Z" fill="#816AA7"/>
<path d="M33.8064 10.1854C31.8317 8.60306 29.5573 7.43665 27.1201 6.75633C28.667 8.3146 29.8791 10.1726 30.6819 12.2163C31.7876 11.6436 32.8341 10.9634 33.8064 10.1854Z" fill="#816AA7"/>
<path d="M31.2289 21.0817C30.996 18.7929 30.5087 16.5373 29.776 14.3564C27.5571 15.2624 25.1959 15.77 22.8008 15.8561V24.1827H29.0184C29.4849 22.9808 30.2448 21.9147 31.2289 21.0817Z" fill="#816AA7"/>
<path d="M22.8008 6.12364V14.294C25.0041 14.2098 27.1752 13.7364 29.2136 12.8958C27.628 9.12309 25.3394 6.56106 22.8008 6.12364Z" fill="#816AA7"/>
<path d="M14.8262 12.8958C16.8646 13.7365 19.0356 14.2098 21.239 14.294V6.12364C18.7004 6.56106 16.4118 9.1231 14.8262 12.8958Z" fill="#816AA7"/>
<path d="M16.9196 6.75633C14.4841 7.43504 12.212 8.60166 10.2412 10.1854C11.2107 10.9633 12.2546 11.6436 13.3578 12.2163C14.1664 10.1756 15.3778 8.31869 16.9196 6.75633Z" fill="#816AA7"/>
<path d="M12.5996 24.1827H21.2386V15.8562C18.8451 15.7712 16.4858 15.2607 14.2712 14.3486C13.2134 17.5217 12.6496 20.8384 12.5996 24.1827Z" fill="#816AA7"/>
<path d="M12.67 13.4605C11.3318 12.7797 10.0719 11.9546 8.91295 11C5.32692 14.3827 3.20499 19.033 3 23.9585H10.9126C10.9506 20.3892 11.5435 16.8475 12.67 13.4605Z" fill="#816AA7"/>
<path d="M14.2712 35.579C16.4858 34.667 18.8451 34.1565 21.2386 34.0715V25.7449H12.5996C12.6503 29.0892 13.2141 32.4058 14.2712 35.579Z" fill="#816AA7"/>
<path d="M11.0376 25.7449H3.125C3.32932 30.6722 5.45458 35.3236 9.04577 38.7034C10.2007 37.7472 11.4582 36.922 12.795 36.243C11.6685 32.8559 11.0756 29.3142 11.0376 25.7449Z" fill="#816AA7"/>
<path d="M10.2412 39.7423C12.212 41.326 14.4841 42.4927 16.9196 43.1714C15.3778 41.6105 14.1687 39.7531 13.3656 37.7114C12.2599 38.2841 11.2134 38.9643 10.2412 39.7423Z" fill="#816AA7"/>
<path d="M21.239 43.8041V35.6337C19.0358 35.7187 16.8648 36.192 14.8262 37.0319C16.4118 40.8046 18.7004 43.3666 21.239 43.8041Z" fill="#816AA7"/>
<path d="M25.2847 35.8914C24.4634 35.7503 23.6336 35.6642 22.8008 35.6336V43.804C23.2108 43.7072 25.3066 43.1911 24.8005 42.6168C24.1973 41.5766 23.9209 40.3789 24.0073 39.1796C24.0936 37.9802 24.5387 36.8345 25.2847 35.8914Z" fill="#816AA7"/>
</svg>
