<svg width="50" height="50" viewBox="0 0 50 50" fill="none" xmlns="http://www.w3.org/2000/svg">
<g clip-path="url(#clip0_310_305)">
<path fill-rule="evenodd" clip-rule="evenodd" d="M10.6927 25.9628H6.23878C5.87812 27.555 4.64042 28.7296 3.17218 28.7296C1.42115 28.7296 -0.000976562 27.0592 -0.000976562 25.0024C-0.000976562 22.9457 1.42115 21.2752 3.17218 21.2752C4.63939 21.2752 5.87505 22.4474 6.23775 24.0372H10.6927V22.6063L13.1906 21.4774C13.414 20.3858 13.7367 19.3304 14.1548 18.3279H10.0912C9.63837 18.3279 9.27156 17.897 9.27156 17.3651V7.32802C7.91706 6.90319 6.91808 5.45058 6.91808 3.72719C6.91808 1.67044 8.34021 0 10.0912 0C11.8423 0 13.2644 1.67044 13.2644 3.72719C13.2644 5.45179 12.2654 6.90319 10.9109 7.32802V16.4011H14.5123L13.6681 14.1698L16.5523 10.782L19.0011 12.0613C20.1681 11.2165 21.4375 10.5991 22.7685 10.2272L23.7337 7.28831H27.8136L28.7746 10.2272C30.1056 10.5991 31.375 11.2165 32.5421 12.0613L34.9908 10.782L37.875 14.1698L36.79 17.0462C37.1845 17.7983 37.5205 18.5866 37.7962 19.4038H31.0605C29.7572 17.7069 27.8699 16.6406 25.7705 16.6406C21.8382 16.6406 18.6548 20.381 18.6548 24.9988C18.6548 29.6166 21.8392 33.3618 25.7705 33.3618C27.872 33.3618 29.7603 32.2919 31.0636 30.5914H37.7962C37.5195 31.4086 37.1824 32.198 36.79 32.9514L37.875 35.8278L34.9908 39.2156L32.5421 37.9411C31.3791 38.7859 30.1056 39.4033 28.7746 39.7752L27.8136 42.7093H23.7337L22.7726 39.7752C21.4375 39.4033 20.1681 38.7811 19.0011 37.9411L16.5523 39.2156L13.6681 35.8278L14.5123 33.5965H10.9109V42.6696C12.2654 43.0944 13.2644 44.547 13.2644 46.2704C13.2644 48.3272 11.8423 49.9976 10.0912 49.9976C8.34021 49.9976 6.91808 48.3272 6.91808 46.2704C6.91808 44.5458 7.91706 43.0944 9.27156 42.6696V32.6337C9.27156 32.1018 9.63837 31.6709 10.0912 31.6709H14.1537C13.7357 30.6696 13.414 29.6142 13.1906 28.5262L10.6927 27.3973V25.9616V25.9628Z" fill="#816AA7"/>
<path d="M10.0914 48.0744C10.9385 48.0744 11.6252 47.2678 11.6252 46.2728C11.6252 45.2778 10.9385 44.4712 10.0914 44.4712C9.24433 44.4712 8.55762 45.2778 8.55762 46.2728C8.55762 47.2678 9.24433 48.0744 10.0914 48.0744Z" fill="white"/>
<path fill-rule="evenodd" clip-rule="evenodd" d="M4.70727 25C4.70625 24.0071 4.01977 23.2008 3.17346 23.2008C2.32715 23.2008 1.63965 24.0083 1.63965 25.0024C1.63965 25.9965 2.32715 26.804 3.17346 26.804C4.01977 26.804 4.70727 25.9965 4.70727 25.0024V25Z" fill="white"/>
<path d="M10.0914 5.52882C10.9385 5.52882 11.6252 4.72221 11.6252 3.7272C11.6252 2.73219 10.9385 1.92558 10.0914 1.92558C9.24433 1.92558 8.55762 2.73219 8.55762 3.7272C8.55762 4.72221 9.24433 5.52882 10.0914 5.52882Z" fill="white"/>
<path fill-rule="evenodd" clip-rule="evenodd" d="M49.8506 25.3791C47.5565 27.6681 45.2594 29.9584 42.9653 32.2474C42.8373 32.3786 42.6662 32.4038 42.5114 32.3208C42.3588 32.2378 42.2666 32.0681 42.2666 31.8671V28.6682H28.0739C27.6067 28.6682 27.2256 28.2217 27.2256 27.6717V22.3295C27.2256 21.7807 27.6057 21.3306 28.0739 21.3306H42.2666V18.1317C42.2666 17.9331 42.3588 17.7647 42.5114 17.6816C42.6662 17.595 42.8373 17.6238 42.9653 17.7514C45.2594 20.0404 47.5565 22.3295 49.8506 24.6197C49.951 24.7184 50.0002 24.8496 50.0002 25C50.0002 25.1504 49.951 25.284 49.8506 25.3803V25.3791Z" fill="white"/>
</g>
<defs>
<clipPath id="clip0_310_305">
<rect width="50" height="50" fill="white"/>
</clipPath>
</defs>
</svg>
