<svg width="50" height="50" viewBox="0 0 50 50" fill="none" xmlns="http://www.w3.org/2000/svg">
<g clip-path="url(#clip0_310_311)">
<path fill-rule="evenodd" clip-rule="evenodd" d="M22.6298 26.8703C22.0211 26.5344 21.5097 26.0516 21.183 25.4209C20.7634 24.6123 20.7175 24.05 20.8798 23.7654C20.9022 23.7251 20.9245 23.704 20.9424 23.703C21.0409 23.699 21.1864 23.7654 21.3643 23.9152C21.8935 24.3588 22.4071 25.2982 22.6298 26.8703Z" fill="#816AA7"/>
<path fill-rule="evenodd" clip-rule="evenodd" d="M28.8179 25.4209C29.2374 24.6123 29.2833 24.05 29.1211 23.7654C29.0987 23.7251 29.0763 23.704 29.0584 23.703C28.96 23.699 28.8145 23.7654 28.6366 23.9152C28.1073 24.3588 27.5938 25.2992 27.3711 26.8703C27.9798 26.5344 28.4911 26.0516 28.8179 25.4209Z" fill="#816AA7"/>
<path fill-rule="evenodd" clip-rule="evenodd" d="M24.9996 28.8407C24.7624 28.8407 24.5252 28.8286 24.2891 28.8055V33.6746H25.709V28.8055C25.4729 28.8296 25.2357 28.8407 24.9985 28.8407H24.9996Z" fill="#816AA7"/>
<path fill-rule="evenodd" clip-rule="evenodd" d="M34.063 23.6899C34.063 18.8238 29.5314 16.3917 24.9998 16.3917C20.4681 16.3917 15.9365 18.8248 15.9365 23.6899C15.9365 28.8216 20.1806 30.0255 20.4547 33.6746H22.7474L22.744 28.4665C22.6243 28.4243 22.5057 28.379 22.3893 28.3307C21.2861 27.8681 20.3428 27.0936 19.78 26.0083C19.1366 24.7692 19.1523 23.7593 19.507 23.1357C19.7946 22.6308 20.2802 22.3451 20.8631 22.318C21.3644 22.2949 21.9127 22.4789 22.4151 22.8994C23.2375 23.5873 24.0297 25.0307 24.2389 27.3974C24.4895 27.4336 24.7435 27.4517 24.9986 27.4517C25.2538 27.4517 25.5078 27.4336 25.7584 27.3974C25.9665 25.0307 26.7598 23.5883 27.5822 22.8994C28.0846 22.4779 28.6329 22.2949 29.1342 22.318C29.7171 22.3451 30.2027 22.6298 30.4903 23.1357C30.8461 23.7593 30.8607 24.7692 30.2173 26.0083C29.6545 27.0936 28.7123 27.8681 27.608 28.3307C27.4916 28.38 27.373 28.4253 27.2533 28.4665L27.2499 33.6746H29.5426C29.8167 30.0255 34.0608 28.8226 34.0608 23.6899H34.063Z" fill="white"/>
<path fill-rule="evenodd" clip-rule="evenodd" d="M23.7961 40.0696H26.204C26.8753 40.0696 27.4259 39.5747 27.4259 38.9712V38.3999H22.5742V38.9712C22.5742 39.5757 23.1247 40.0696 23.7961 40.0696Z" fill="#816AA7"/>
<path fill-rule="evenodd" clip-rule="evenodd" d="M29.5352 35.5565L29.5319 35.0818H20.4619L20.4653 35.5565C20.4709 36.3461 21.1836 36.9918 22.062 36.9918H27.9396C28.818 36.9918 29.5419 36.3461 29.5363 35.5565H29.5352Z" fill="#816AA7"/>
<path fill-rule="evenodd" clip-rule="evenodd" d="M14.9792 8.74555C15.1459 8.74555 15.3149 8.69828 15.457 8.5987L20.4462 5.13971L26.4235 6.96526C26.6719 7.0407 26.946 7.00046 27.1542 6.85663L33.485 2.46626L33.4324 2.67245C33.3339 3.05063 33.5969 3.42882 34.0176 3.51733C34.4394 3.60584 34.8602 3.36948 34.9575 2.99029L35.5058 0.868018C35.508 0.85796 35.5102 0.846896 35.5125 0.836838C35.5181 0.808675 35.5226 0.780513 35.5248 0.75235C35.5371 0.586391 35.4856 0.415402 35.3637 0.274588C35.2115 0.0955536 34.981 0.00301871 34.7471 0.00100708H32.205C31.7731 0.00100708 31.4217 0.315827 31.4217 0.705077C31.4217 1.09433 31.7719 1.40915 32.205 1.40915H32.4455L26.5298 5.51186L20.5525 3.68631C20.3041 3.61087 20.03 3.6511 19.8219 3.79494L14.5003 7.48426C14.1579 7.72163 14.0941 8.16419 14.3582 8.47197C14.5126 8.65201 14.7453 8.74555 14.9792 8.74555Z" fill="white"/>
<path d="M17.2601 10.8417H14.126V14.4475H17.2601V10.8417Z" fill="white"/>
<path fill-rule="evenodd" clip-rule="evenodd" d="M20.3311 7.71458V14.4475H23.4651V7.71458H20.3311Z" fill="white"/>
<path d="M29.6702 9.2917H26.5361V14.4475H29.6702V9.2917Z" fill="white"/>
<path fill-rule="evenodd" clip-rule="evenodd" d="M35.8743 5.06628H32.7402V14.4475H35.8743V5.06729V5.06628Z" fill="white"/>
<path fill-rule="evenodd" clip-rule="evenodd" d="M9.89124 9.88917C10.0904 9.7564 10.209 9.54618 10.209 9.3239C10.209 9.10161 10.0904 8.8914 9.89124 8.75863L7.81453 7.37362C7.46431 7.14229 6.9731 7.20767 6.72023 7.51947C6.46176 7.83228 6.53113 8.27282 6.88247 8.50416L7.0559 8.61983H0.782124C0.350222 8.61983 0 8.93465 0 9.3239V35.7627C0 36.152 0.350222 36.4668 0.782124 36.4668H6.14622V35.0586H1.56425V10.028H7.0559L6.88247 10.1436C6.53225 10.375 6.46176 10.8155 6.72023 11.1283C6.87128 11.3144 7.10849 11.413 7.3457 11.413C7.50795 11.413 7.67466 11.3677 7.81453 11.2742L9.89124 9.88917Z" fill="#816AA7"/>
<path fill-rule="evenodd" clip-rule="evenodd" d="M49.2189 8.61983H42.9496L43.1241 8.50416C43.4688 8.27282 43.5392 7.83127 43.2864 7.51947C43.0279 7.20767 42.5367 7.14229 42.1865 7.37362L40.1098 8.75863C39.9106 8.8914 39.792 9.10161 39.792 9.3239C39.792 9.54618 39.9106 9.7564 40.1098 9.88917L42.1865 11.2742C42.3263 11.3677 42.4942 11.413 42.6553 11.413C42.8925 11.413 43.1297 11.3144 43.2864 11.1283C43.5404 10.8155 43.4699 10.375 43.1241 10.1436L42.9496 10.028H48.4368V35.0576H43.8548V36.4658H49.2189C49.6553 36.4658 50.001 36.151 50.001 35.7617V9.3239C50.001 8.93565 49.6564 8.61983 49.2189 8.61983Z" fill="#816AA7"/>
<path fill-rule="evenodd" clip-rule="evenodd" d="M25.0002 43.247C19.6014 43.247 15.2253 39.3132 15.2253 34.4602H7.71289V37.0471L11.1894 37.6637L12.7156 40.9718L10.7407 43.6191L14.8113 47.2783L17.7563 45.503L21.4364 46.8749L22.1223 50H27.8792L28.5651 46.8749L32.2452 45.503L35.1902 47.2783L39.2608 43.6191L37.2859 40.9718L38.8121 37.6637L42.2886 37.0471V34.4602H34.7762C34.7762 39.3132 30.4001 43.247 25.0013 43.247H25.0002Z" fill="#816AA7"/>
</g>
<defs>
<clipPath id="clip0_310_311">
<rect width="50" height="50" fill="white"/>
</clipPath>
</defs>
</svg>
